<svg version="1.1" id="Layer_1" xmlns="http://www.w3.org/2000/svg" xmlns:xlink="http://www.w3.org/1999/xlink" x="0px" y="0px"
	 width="100%" viewBox="0 0 86 111" enable-background="new 0 0 86 111" xml:space="preserve">
<path fill="#FCFBFD" opacity="1.000000" stroke="none" 
	d="
M86.667511,46.880348 
	C87.000000,67.051506 86.803909,87.106392 87.148651,107.151970 
	C87.227158,111.716789 85.793907,112.507072 81.895950,112.057442 
	C79.279327,111.755615 76.599693,112.000000 73.474129,112.000000 
	C72.840370,111.813286 72.680733,111.626564 72.291046,111.155609 
	C71.890945,110.590523 71.790512,110.230324 71.555824,110.031929 
	C67.839920,106.890732 65.160660,102.947968 63.528656,97.852913 
	C61.332397,102.059341 63.009956,106.245880 61.985664,110.428436 
	C61.740028,110.996162 61.607750,111.208214 61.237740,111.710129 
	C57.969406,112.000000 54.938812,112.000000 51.454109,112.000000 
	C50.870575,111.799110 50.741150,111.598228 50.682404,111.046936 
	C53.880760,106.250717 53.827026,105.556999 49.902126,103.362488 
	C48.455544,102.553673 46.523651,102.093231 46.679585,100.039886 
	C46.861668,97.642212 49.390350,98.511681 51.386627,97.856293 
	C49.228596,97.045052 47.743908,97.241150 46.288658,97.629288 
	C44.922035,97.993790 43.833488,98.770409 43.653530,100.292656 
	C43.472233,101.826233 44.343311,102.790466 45.643078,103.431320 
	C46.242142,103.726685 46.900192,103.882103 47.502476,104.162834 
	C48.846622,104.789360 50.602261,105.305870 50.276962,107.182983 
	C49.934639,109.158333 48.106503,108.813797 46.629234,108.875374 
	C45.802464,108.909828 44.387821,108.315735 45.103889,110.481293 
	C45.298904,111.001434 45.343636,111.222916 45.194183,111.722198 
	C36.645767,112.000000 28.291536,112.000000 19.468653,112.000000 
	C18.853403,109.762825 19.784210,107.856850 21.145052,105.794640 
	C21.673447,105.550194 21.903866,105.502586 22.480293,105.505920 
	C24.610897,107.124176 26.504564,107.888084 29.051807,106.294365 
	C29.864246,106.235931 30.318422,106.326241 31.048706,106.687538 
	C32.044266,107.281326 32.983704,109.637962 33.451584,107.277596 
	C34.030163,104.358788 34.376743,101.133736 32.894867,98.198326 
	C30.695560,98.553886 30.025379,100.219978 29.208473,101.578453 
	C27.197931,104.921883 25.362087,104.520584 23.247702,101.670212 
	C22.230423,100.298836 21.457800,97.741470 19.401684,98.481117 
	C17.416615,99.195190 18.449732,101.697754 18.295603,103.423820 
	C18.060341,106.058472 18.608780,108.708633 18.119633,111.674820 
	C13.690807,112.000000 9.363692,111.759438 5.078286,112.078712 
	C1.848202,112.319366 0.840587,111.723061 0.886423,108.115547 
	C1.128556,89.058731 1.000000,69.997208 1.000000,50.468658 
	C1.205942,49.880798 1.411885,49.761597 1.942425,49.789806 
	C6.083428,55.966316 9.498468,62.290333 15.193880,67.373230 
	C16.006838,68.120880 16.420845,68.725243 16.904194,69.727303 
	C20.627176,80.137009 27.860662,84.239288 38.264961,82.091850 
	C40.669876,81.595490 43.059536,80.703514 45.841858,82.047218 
	C55.739754,87.302124 64.697266,84.700668 69.836723,75.026413 
	C73.649918,69.197243 76.681580,63.428909 77.744408,56.421040 
	C78.128372,55.388805 78.494370,54.757534 79.118896,53.860565 
	C81.878357,51.518196 83.276649,48.285885 86.667511,46.880348 
z"/>
<path fill="#FEFDFF" opacity="1.000000" stroke="none" 
	d="
M55.814526,1.308220 
	C65.434578,1.000000 74.871536,1.115701 84.302094,0.920995 
	C86.747910,0.870497 87.096046,1.516789 87.062477,3.766781 
	C86.916801,13.530219 87.000000,23.297071 87.000000,33.531342 
	C83.557297,33.498203 83.485214,29.511801 80.663544,27.876356 
	C77.475998,24.487036 74.471008,21.416950 70.038429,19.610737 
	C69.161957,18.993269 68.729004,18.437166 68.256683,17.474165 
	C67.244713,9.880609 62.358162,5.896183 56.133377,2.545487 
	C55.797604,2.065478 55.713329,1.840959 55.814526,1.308220 
z"/>
<path fill="#FDFCFF" opacity="1.000000" stroke="none" 
	d="
M1.344488,41.109352 
	C1.000000,28.729023 1.119788,16.456007 0.911079,4.188579 
	C0.862301,1.321512 1.614552,0.895918 4.280897,0.925468 
	C18.540016,1.083494 32.801811,1.000000 47.531342,1.000000 
	C48.134537,1.178649 48.269073,1.357297 48.304356,1.857809 
	C47.762230,2.703941 47.195297,3.070518 46.333023,3.607732 
	C45.054253,4.364019 44.104591,5.009484 42.760689,5.684401 
	C41.471764,6.082212 40.502937,6.064676 39.164520,5.891123 
	C35.366226,5.007996 31.995804,5.064892 28.373466,6.681909 
	C27.046459,7.114291 26.040195,7.211794 24.659752,7.325892 
	C12.608696,8.946392 7.574034,14.490047 7.308356,26.423338 
	C7.343927,28.002321 7.365551,29.216562 7.754337,30.766521 
	C8.087018,32.684933 7.757823,34.125854 6.786112,35.792587 
	C4.483200,37.360245 4.160585,40.317589 1.344488,41.109352 
z"/>
<path fill="#141414" opacity="1.000000" stroke="none" 
	d="
M21.932899,105.462616 
	C20.752661,107.267632 23.174747,110.564987 19.136089,111.620728 
	C19.000000,112.000000 18.500000,112.000000 18.250000,112.000000 
	C17.140539,107.551094 17.716206,103.055351 17.578058,98.582977 
	C17.548655,97.631081 17.391296,96.451912 18.722078,96.178818 
	C19.917400,95.933517 21.046196,96.144081 21.766384,97.313599 
	C23.142712,99.548592 24.521090,101.782310 26.194965,104.497215 
	C27.692326,102.056511 28.919855,100.169426 30.026415,98.213890 
	C30.830343,96.793182 31.787197,95.784851 33.564648,96.164825 
	C35.567924,96.593079 34.803631,98.248894 34.848515,99.415710 
	C34.957031,102.236679 34.917637,105.065262 34.868343,107.889565 
	C34.843975,109.285561 35.345547,111.032440 32.893665,111.036301 
	C30.425854,111.040184 31.039455,109.271553 30.861654,107.474281 
	C30.455124,106.475563 30.002323,106.180946 29.052563,106.699829 
	C26.855640,109.428841 24.968359,110.859497 23.146818,106.325951 
	C22.795359,105.712219 22.510532,105.569008 21.932899,105.462616 
z"/>
<path fill="#9C70F3" opacity="1.000000" stroke="none" 
	d="
M1.000000,41.250000 
	C3.647264,40.341324 2.842414,36.980797 5.285867,35.802887 
	C6.133530,35.858170 6.479818,36.214783 6.690351,37.142811 
	C6.499180,40.704754 5.599229,43.908657 7.306072,47.342125 
	C8.256147,52.720337 12.612452,55.576321 14.983896,60.092499 
	C15.314225,62.859432 16.076710,65.226944 15.110736,67.942101 
	C9.050231,63.514370 5.082881,57.481487 2.022372,50.384758 
	C0.998390,47.629513 1.792354,45.117847 1.230538,42.342552 
	C1.000000,42.000000 1.000000,41.500000 1.000000,41.250000 
z"/>
<path fill="#AE8AF5" opacity="1.000000" stroke="none" 
	d="
M80.628357,27.131805 
	C83.917549,28.336521 84.969048,31.171583 86.695351,33.855370 
	C87.000000,38.024544 87.000000,42.049088 87.000000,46.536816 
	C84.876778,49.259777 82.753563,51.519554 80.311920,53.885750 
	C78.596909,52.588867 78.751350,50.822891 79.425743,49.333923 
	C82.451469,42.653526 81.624809,36.061321 79.344574,29.037895 
	C79.508835,28.081377 79.800705,27.631857 80.628357,27.131805 
z"/>
<path fill="#DEDEDE" opacity="1.000000" stroke="none" 
	d="
M61.460636,112.000000 
	C61.036064,111.762222 61.072132,111.524445 61.187210,110.934669 
	C64.807007,108.920403 68.426140,109.306358 72.441216,110.435059 
	C72.855927,110.916046 72.892944,111.131699 72.964981,111.673676 
	C69.307091,112.000000 65.614182,112.000000 61.460636,112.000000 
z"/>
<path fill="#D6C4FA" opacity="1.000000" stroke="none" 
	d="
M1.000000,42.444164 
	C3.065859,44.131832 1.653302,46.776070 2.014554,49.585098 
	C1.975365,50.016960 1.487778,50.003017 1.243889,50.001511 
	C1.000000,47.629444 1.000000,45.258884 1.000000,42.444164 
z"/>
<path fill="#D8C7FA" opacity="1.000000" stroke="none" 
	d="
M48.262627,2.237645 
	C47.912594,1.882928 47.958626,1.441694 47.979313,1.220847 
	C50.370556,1.000000 52.741116,1.000000 55.555836,1.000000 
	C56.000000,1.000000 56.018833,1.463084 56.040203,1.693830 
	C53.743729,3.989097 51.213650,3.686209 48.262627,2.237645 
z"/>
<path fill="#BEBEBF" opacity="1.000000" stroke="none" 
	d="
M45.428463,112.000000 
	C45.000000,112.000000 45.008263,111.545876 44.985779,111.319885 
	C46.549496,109.455978 48.374077,109.580139 50.647861,110.694206 
	C51.006546,111.015015 50.943798,111.507111 50.971901,111.753555 
	C49.285641,112.000000 47.571285,112.000000 45.428463,112.000000 
z"/>
<path fill="#7538EE" opacity="1.000000" stroke="none" 
	d="
M79.801682,27.641945 
	C84.571487,36.404167 82.658409,44.795494 79.968361,53.588776 
	C79.658150,54.497726 79.322792,55.003277 78.799301,55.747620 
	C77.564659,57.226353 76.714905,58.879913 74.333687,57.570290 
	C71.542450,50.350433 71.798447,43.003677 70.711914,35.876774 
	C70.148537,32.181461 69.044098,28.442680 70.041061,24.219812 
	C74.776718,21.007877 76.739861,25.390520 79.801682,27.641945 
z"/>
<path fill="#9362F2" opacity="1.000000" stroke="none" 
	d="
M46.366272,83.075371 
	C43.192890,81.646812 40.504227,82.749466 37.764954,83.364410 
	C27.691648,85.625793 19.315479,80.691864 16.150036,70.319641 
	C20.657372,68.910507 24.717875,71.269745 29.420670,71.617645 
	C31.076349,71.754837 32.295284,72.055817 33.740051,72.842659 
	C34.845169,73.596222 35.491470,74.339539 36.262028,74.932434 
	C43.675602,80.636673 41.586899,79.866249 48.954174,75.426537 
	C50.005856,75.079582 50.740948,75.041588 51.862717,75.148926 
	C53.943233,75.715683 55.880936,75.633240 57.310780,77.522995 
	C55.314777,82.601906 50.313267,81.315399 46.366272,83.075371 
z"/>
<path fill="#793DEF" opacity="1.000000" stroke="none" 
	d="
M57.299240,78.458115 
	C55.982738,76.249466 53.804722,77.565552 52.237015,76.285896 
	C50.993420,74.791580 51.643990,73.748764 52.594639,73.066315 
	C59.784859,67.904579 66.541031,62.124699 74.641174,57.876511 
	C76.001183,57.357311 77.011620,56.719883 78.316620,56.034431 
	C78.049377,62.862717 75.413231,68.912827 71.097305,74.649780 
	C66.934769,77.784988 62.665905,79.596710 57.299240,78.458115 
z"/>
<path fill="#B18DF5" opacity="1.000000" stroke="none" 
	d="
M56.738796,78.455994 
	C61.680267,78.377350 65.715889,75.871986 70.519562,74.907501 
	C68.125992,84.855072 56.460915,89.044922 46.151302,83.440201 
	C48.536301,79.377502 53.382484,81.101753 56.738796,78.455994 
z"/>
<path fill="#171717" opacity="1.000000" stroke="none" 
	d="
M51.300751,110.852760 
	C49.278366,111.004257 47.550182,110.993492 45.392647,111.038315 
	C43.808704,110.423363 41.562183,110.629112 42.300346,108.351662 
	C43.026299,106.111893 44.626076,107.426308 46.009872,107.677109 
	C47.369469,107.923531 48.944866,108.592484 50.032719,106.847107 
	C48.969837,104.867500 46.842278,105.385780 45.272064,104.708466 
	C43.484501,103.937401 42.014839,102.935532 42.008923,100.761841 
	C42.002602,98.439087 43.414677,97.105736 45.424358,96.344780 
	C46.185852,96.056435 47.055523,95.883133 47.863396,95.921379 
	C49.918587,96.018661 53.269791,95.378326 53.383770,97.726654 
	C53.574383,101.653931 50.293873,98.885017 48.562176,99.166031 
	C47.682220,99.308830 46.949627,99.460754 46.490925,100.655762 
	C48.786236,103.007469 54.209846,101.503662 54.534843,106.427109 
	C54.666962,108.428665 53.395870,109.832245 51.300751,110.852760 
z"/>
<path fill="#262626" opacity="1.000000" stroke="none" 
	d="
M72.823212,110.322540 
	C69.251480,110.746811 65.684052,110.793221 61.691422,110.711151 
	C61.281181,106.620445 61.302334,102.658218 61.307819,98.695969 
	C61.309799,97.266472 61.478943,96.115860 63.371975,96.038376 
	C65.477554,95.952194 65.876945,97.095070 65.812553,98.814201 
	C65.769333,99.968361 65.928978,101.141403 65.782860,102.278358 
	C65.308800,105.966881 65.978165,108.463470 70.584396,107.641365 
	C72.207489,107.351669 73.081200,108.200157 72.823212,110.322540 
z"/>
<path fill="#7435EE" opacity="1.000000" stroke="none" 
	d="
M30.224400,72.647293 
	C25.590071,72.235840 21.050440,72.042549 16.537535,70.001236 
	C15.804962,69.537720 15.445160,69.123985 14.954180,68.470016 
	C14.506895,65.782745 14.190788,63.335701 13.869457,60.469383 
	C14.220078,59.700428 14.760998,59.254234 15.122439,59.475765 
	C20.865040,62.995426 26.821159,66.277649 30.224400,72.647293 
z"/>
<path fill="#C6C6C7" opacity="1.000000" stroke="none" 
	d="
M29.121925,106.877563 
	C29.129807,105.851501 29.412910,104.758736 30.735970,104.709328 
	C30.810505,104.706535 30.927437,105.838966 30.916397,106.749985 
	C30.359055,107.003090 29.909952,106.949242 29.121925,106.877563 
z"/>
<path fill="#8F8F90" opacity="1.000000" stroke="none" 
	d="
M22.013020,105.565407 
	C22.149342,104.623924 22.571962,104.833542 23.000675,105.691513 
	C22.783140,105.911255 22.551725,105.836578 22.013020,105.565407 
z"/>
<path fill="#6A28ED" opacity="1.000000" stroke="none" 
	d="
M30.354362,72.985710 
	C25.894613,67.440903 19.891193,64.177727 14.227240,60.062038 
	C11.693817,56.225315 6.582918,54.223316 6.907510,48.460335 
	C5.230555,45.133232 6.316741,41.927692 6.024666,38.427536 
	C5.992104,37.473465 5.949581,36.946800 5.751435,36.052948 
	C5.977751,34.354301 6.359690,33.022842 6.818322,31.349823 
	C7.557730,29.479639 8.742468,28.414530 10.347652,27.280447 
	C17.544361,22.315287 23.917015,16.965221 29.015314,9.753368 
	C29.539585,8.758923 30.012856,8.182505 30.936119,7.505790 
	C32.277122,6.924249 33.316341,6.902155 34.755905,7.080946 
	C41.140419,8.681612 47.008438,10.722099 53.514763,11.826767 
	C58.256561,13.269682 62.367702,15.468959 67.395416,15.981018 
	C67.991905,16.218660 68.215950,16.347704 68.756310,16.701126 
	C69.385956,17.333603 69.699280,17.741705 70.160492,18.361183 
	C70.687119,19.786940 71.603485,20.851000 71.181374,22.604435 
	C71.396095,34.471954 73.390884,45.793331 74.985153,57.578190 
	C67.359978,63.774475 59.729214,69.554207 52.048187,75.675003 
	C51.268959,76.028046 50.539986,76.040031 49.446472,76.057983 
	C44.077873,77.374916 39.374138,75.997833 34.302666,74.258614 
	C32.843441,73.710815 31.770378,73.360321 30.354362,72.985710 
z"/>
<path fill="#B08DF5" opacity="1.000000" stroke="none" 
	d="
M69.113327,16.540600 
	C68.890839,16.961439 68.709045,16.997377 68.249283,17.031200 
	C65.135445,15.736623 62.309944,14.307524 60.142040,12.088204 
	C56.125046,7.975940 50.167690,7.341385 45.954094,3.412625 
	C46.453224,2.704216 46.891079,2.355036 47.620766,1.944391 
	C50.327663,1.917814 52.742737,1.952700 55.609688,1.956081 
	C63.170403,4.143212 67.951912,8.502954 69.113327,16.540600 
z"/>
<path fill="#915FF1" opacity="1.000000" stroke="none" 
	d="
M71.340492,23.103964 
	C70.415871,21.829327 69.844269,20.686146 70.218735,18.951859 
	C74.735252,19.900736 77.508614,23.416592 80.844910,26.696323 
	C80.875687,27.289711 80.681145,27.553892 80.208656,27.888430 
	C77.210129,26.415890 74.431938,24.830572 71.340492,23.103964 
z"/>
<path fill="#B28FF5" opacity="1.000000" stroke="none" 
	d="
M6.780054,27.262295 
	C4.855431,15.704664 11.418309,7.666265 23.816925,6.499807 
	C24.731722,9.811565 21.241196,10.998625 20.638683,13.968189 
	C19.830723,15.274982 18.940001,16.013218 17.627609,16.791630 
	C13.891813,18.608379 11.531960,21.346783 9.628188,24.544273 
	C8.967584,25.653795 8.716585,27.121157 6.780054,27.262295 
z"/>
<path fill="#8853F0" opacity="1.000000" stroke="none" 
	d="
M45.723091,3.070639 
	C54.262497,5.850260 61.106808,10.923423 67.832764,16.721273 
	C63.130882,17.218546 58.899498,15.243952 54.332813,13.141331 
	C49.779675,10.950282 44.796875,10.003543 42.713989,4.746934 
	C43.727448,3.963939 44.579132,3.525911 45.723091,3.070639 
z"/>
<path fill="#7435EE" opacity="1.000000" stroke="none" 
	d="
M42.487190,4.459240 
	C45.453205,8.449830 50.141781,9.639885 53.841721,12.691725 
	C47.557659,12.526333 41.571552,10.179321 35.206429,8.162941 
	C35.037128,5.680780 36.776859,5.473392 38.654686,4.991901 
	C40.032513,4.812243 41.065567,4.664378 42.487190,4.459240 
z"/>
<path fill="#8852F0" opacity="1.000000" stroke="none" 
	d="
M6.395198,27.482296 
	C9.429304,23.172649 11.343576,18.258944 16.658360,16.034376 
	C17.688852,21.034966 13.791190,23.859726 11.247927,27.726696 
	C9.849626,28.985039 8.706465,29.974562 7.229160,30.986172 
	C5.966169,30.075554 6.351153,28.911261 6.395198,27.482296 
z"/>
<path fill="#8853F0" opacity="1.000000" stroke="none" 
	d="
M20.103296,14.114140 
	C19.660839,10.670108 22.657780,9.479372 24.074451,6.949302 
	C25.196941,6.468230 26.211859,6.268482 27.614235,6.040266 
	C29.249088,6.040691 30.525661,6.000095 31.111515,7.718276 
	C30.748518,8.556509 30.487789,9.037194 30.119507,9.770117 
	C27.207939,12.371738 24.382853,14.674641 20.103296,14.114140 
z"/>
<path fill="#B28FF5" opacity="1.000000" stroke="none" 
	d="
M31.406925,8.065163 
	C30.527348,6.888148 29.184813,7.156622 28.189415,6.265973 
	C31.121572,3.179645 34.791580,3.977797 38.704659,4.697329 
	C37.788551,5.762780 36.577637,6.565454 35.174118,7.615384 
	C33.922539,7.926592 32.863571,7.990547 31.406925,8.065163 
z"/>
<path fill="#834CF0" opacity="1.000000" stroke="none" 
	d="
M5.735991,38.276291 
	C7.970905,40.888866 6.621027,44.117863 6.940359,47.622505 
	C3.202692,45.392685 5.429039,41.802620 5.735991,38.276291 
z"/>
<path fill="#7334EE" opacity="1.000000" stroke="none" 
	d="
M34.084534,74.354279 
	C38.792496,73.952873 43.531937,74.895126 48.670937,75.994652 
	C42.764416,82.004272 42.065304,81.937485 34.084534,74.354279 
z"/>
<path fill="#F5F1FE" opacity="1.000000" stroke="none" 
	d="
M60.745609,41.020966 
	C60.753361,45.838871 60.595325,50.170944 60.823982,54.482502 
	C60.991478,57.640839 59.375290,57.907482 56.866665,57.945663 
	C54.232265,57.985756 52.792873,57.436073 53.000957,54.396904 
	C53.215225,51.267384 53.048534,48.111778 52.225777,44.536972 
	C50.622463,47.090973 49.038025,49.657063 47.411453,52.196167 
	C44.910194,56.100674 42.949394,56.175014 40.463402,52.408192 
	C38.919674,50.069111 37.497883,47.649555 34.885292,45.354820 
	C34.885292,48.188778 34.735733,51.032875 34.926907,53.853878 
	C35.122185,56.735424 34.382206,58.061813 31.125288,57.982315 
	C28.203320,57.910999 26.977720,57.249454 27.075291,54.067669 
	C27.289251,47.090443 27.093756,40.101536 27.181040,33.118843 
	C27.199343,31.654593 26.294592,29.369488 28.866047,29.172640 
	C31.039930,29.006231 33.554737,28.191177 35.119530,30.865509 
	C37.301777,34.595108 39.697800,38.201233 41.829319,41.958351 
	C43.312397,44.572502 44.454151,45.137634 46.106510,42.088753 
	C47.926605,38.730366 50.278645,35.636784 51.867836,32.183430 
	C53.423187,28.803606 56.053139,28.611664 58.870255,29.165607 
	C62.143517,29.809246 60.388794,32.673771 60.658329,34.549030 
	C60.939507,36.505230 60.736771,38.530991 60.745609,41.020966 
z"/>
<path fill="#7334EE" opacity="1.000000" stroke="none" 
	d="
M19.571709,13.999407 
	C23.419317,13.695785 25.958420,10.891157 29.650600,10.050277 
	C29.122362,13.868888 25.602802,15.569504 23.234999,18.183493 
	C19.839697,21.931810 15.822558,25.019724 11.340155,27.963791 
	C11.950907,23.697178 15.291481,20.652199 16.966841,16.359951 
	C17.776453,15.391574 18.548380,14.774608 19.571709,13.999407 
z"/>
</svg>